/* XPM */
static char *_e06b33d3ffe4aaed24469352e70fe2d0TkF1kYnAjS3I3r9[] = {
/* columns rows colors chars-per-pixel */
"100 100 22 1 ",
"  c #484848",
". c #606060",
"X c #5B5B5B",
"o c #191919",
"O c #1E1E1E",
"+ c gray27",
"@ c gray24",
"# c #4C4C4C",
"$ c #414141",
"% c #252525",
"& c gray34",
"* c gray33",
"= c gray17",
"- c gray8",
"; c #373737",
": c #313131",
"> c #505050",
", c #0E0E0E",
"< c #656565",
"1 c gray43",
"2 c #808080",
"3 c gray66",
/* pixels */
">>>>#########                +++   +  +@@@@@$$@@@$$$$$$@@@$$@@@$@@@@@@@@@@@@@@@@$@@@@@@@@@@@@@$$$$$$",
">>>>>#>#>##### ## #        +++ +   $@=OOO%O%%Ooo%=;$+$@$$$$$@$@@@$+@@@@@@@@@@@@@$@$$@$$@$$@$$@$$$$$$",
">>>>>>>>#>### #### #        # ++$;=O----oOOOOo---,-O%=:;@@@$$$$$@@@@$@$@@@@@@@@@$@@@$@@$@@$@@$$$$$$$",
">>>>>#>>>###### ###       ## @:%OOoOOOOOO%%%oooo--,,,,---oO%:;@$+$;@$@@@@@@@@@@@$@$@$@$@$@$@$@$$$$$$",
">*>>>>>>>>#>######## #    #+;%ooO%%=%=%%%%%%%Oo--oO-,,,,,,,,--O=@+$@@@@@@@@@@@@@$@$@$@$@$@$@$@$$$$$$",
"*>>>>>>>>>>##########   #  ;O-OOO%%%=::%O%%==%%OooOo-,,,,,,,,,,-O=$$@@@@@@@@@@@@$@$@$@$@$@$@$@$$$$$$",
"**>>>>>>>>#>####### ># ###;%OOO%%:%-O=;:O%%O%%:OOO%%O----,,,---,,-O;+@;$$@@$@@@$@$@@@@@@$$$$$$$$$$$$",
"**>>>>>>>>>########>### ;:O-%=OOOO==oO@$=%O%:==OO%%=%--Oo----oo--,,O=@$@;@$@@$@$@@@@@@$@$$$$$$$$$$$$",
"**>*>>>>>>>>#########+@:%%%%oO%%%O%:%O:+@%O%%=OO-oOO%o,OooO-,oO,--,,,%$@;$@@$@$@$@$@@@@@$$$$$$$$$$$$",
"**>>>>>>>>>>>>###### ;O%:=%%OOO%::OO:%O:$;=OO%oO---,--,-ooo-,--,-o-o,,%@+@@$@$@$@$@$@$@$$$$$$$$$$$$$",
"****>*>*>>>>>>>#### =OoOO%OOOOOO%=%%=%%=;@=OOOO%o--,,-,,--,,,,,,---oo-,=@;$@$@$@$$$$$$$$$$$$$$$$$$$$",
"*>*****>>>>>>>>####=ooOo--O%%OOo-o%===%===::%O=Ooo-Oo------,--o-oo,ooo-O:@@$@$@$@@$$@$$$+$$+$$+$$+$$",
"***>**>*>*>>>>>>##:-O%OoOO--%===%%%%==:;::;@;::%%%O%%OOo-----oooOOoOOO%O=@@@$$@@$$$$$$@$$$$$$$$$$$$+",
">********>>#>#>>#@oO%=%%O-ooOO%%=:::==:;;;@@$$@;;;::===%OOOooooOOoooo%%O%:@@@$@@$$$@$$$$$$+$$+$$+$$$",
"**>*>*>**>>>#>#> %%=:::=%OOOOOO%=%==:::;@$+   $@$+@@;;;;:===%%%%%%OO%===%=$$@@@$$@$$$@$$$$$$$$$$$$+$",
"******>***>>#>#*$O=======:=%O%:==:::::@+ #>*># ++ +$@;;@;;;::::;::;;@$+@%%@+$@$$@$$$$$$$$+$$+$$+$$$$",
"**>**>*>***>>*>>;O=OOOO%=%%===%==%%=@+ #>***&*# ++ +$@@@;@;;;@;;@@@+#>&>:O=$$$$$@$$$$$$$$$$$$$$$$+$$",
"*******>***>*>>$OoOOOO%=%OoooOOOO%=:;+>*&&*&&&*# +++$$@@;;;;;;@;@@$ >&X&#:O:@+$@$$+$$+$$+$$+$$+$$$$$",
"*>**>*>>*****>>=,----oOOo-oooooO%%%:$#>&&&X&&&&*# +$+$@@@;;;;;;;@@+>*&XX.#%%;+$@$$$$$$$$$$$$$$$$+$$+",
"*************& -o-ooO%%%%%%%OOOOo%::$#>&*&&&&*&X*#+$$$$@@@;;;;;;;;$>&&XX<.$O%+@$+$$$+$$$$$$$$$+$$$+$",
"********>**>*>@oOO%O%=:;;::%OoooO=;@$#*&**&*&&&&*> +$$$$@@;@;;;;;;@#>>&<1<*=%;$++$+$$$+$$$$$$$$+$+$+",
"*************>=-OOOOO%%===%OOOO%=:;@$ >**&XX&&&&&&#$@@@@@;;;;;;;;;@+#>*.<XX+%:$+$$$$+$$$$$$$$$+$+$+$",
"*****&***>*>&>%oOO%O%OO%%%%O%%%%=;;@@+>*&&X&***>** $;;;;;;:::=::;;@+ #>X..<.;=@$@$+$+$+$+$$+$$$+$+$+",
"&&&&&&*****>&>%%OOO%OO%%%%%O%%OO=@$+$+>&&&&**>>>>> $;;;:;;;;::==::;$++#*.1<1#=;$@+++++++$$+$+$+$+$+$",
"&*&*&****>***#%%OO%==%%OOooO%=%=;@@+#+ &XX&&&>>*># +@;;:;:;:;:::;;;@@+##X1<1X=;+$++++++$+$+$+$+$+$+$",
"&&&&*******>&;%OOO%%OoOOO%==:::;@+ $$$ &X&&XX*###  +@@@@;;;;::::;;$;@ ##*<122@%$+ $$$$$$+$+$+$+$+$+$",
"&&&&*&*&*****:OOOOOOooOOO===:;:;;;$$+>&..X&&>***#  +$$$@;;;;;;:;;$ $$$ #&<<12*%$$+$+$++$+$+$+$+$+$+$",
"&&&&**&&****#%OOOOOOOO%%%%=====;::@#*X<<.&**>XX> $;;;;;;;;;;;;:;;+> +@++&1<<21%$+$++++++++++++++++++",
"&&&&**&&&**& OOOOOooooO%%===:::;;@#X<<..X**>>&>+;;:=====:;;:::::; *##$@@&1<.22=$+$+++$++$++$++$++$++",
"&&&&**&&&&*&+OOoOOoOOOO%=%=::;@$ *X<<.XX&&&*># @;;:=%%%%=:::::=:;#*#*$:;*<..12@@++++++++++++++++++++",
"&&&&**&&&&*&+OOoooooOOO%%=::::;+&..<.&&****> $@;:%%OooOOOO%%==%%;#>#&$=@X.&112 ;+ ++++++++++++++++++",
"&&&&&&&&&**&$ooO-oooO%%%%====:;*....X&X&*&*#$@=OoOo---oo--ooOO==:@;@& =;.X*122&;$$++++++++++++++++++",
"&&&&&&*&&**&$ooOooOO%%%%%O%=:@#X...X&&**&X ;:%%:=%%OOOo-,,,,-o%==:=:$;=+<&&1121; +++++++++++++++++++",
"X&&&&&&&&&*&$ooooOoO%%=%%%=::+X<<<..X>>*> @;:;@@$$;::=%o-,,,--ooO%=:==:>X &1122@$+++++++++++++++++++",
"&X&&&&&&&&*&$Ooo-ooO%%=%%%::; .<<<.X&*&* + # +$+@;;;::=%Oo---o-ooo=:%=;> ;><121#++++++++++++++++++++",
"X&&&&&&&&&&&+OoOoOOO%%%%%%=:@>.<<<.X&&&#>X>$$ +@=O%%O%%OOOo-oOOOo-%=O%@#$=@ #<2#+ ++++++++++++++++++",
"XX&X&&X&&&&&#Oo=oo%%%%%%%%%;+&<<..X&**&X&*#$+$;=%O-,,,---oo--%=%OO%%%;$@:%=:@+< @+++++++++++++++++++",
"XXX&X&&&&&*&#%%@;%%==%%%O%%; &.<.X&**>&X>$@@@%ooo-oo-,,,,,-,,o=:==:=:#$=%Oo=;%$#+;$++$++++++++++++++",
"XXXXXX&&X&***:;$> ::;===OO=; &.<<X&&&&*> $;==%OO%%%%O,,,,,-o-o%;$$$@;&>O-o-oOo%;;:;$++$+++++++++++++",
"&XX&XXX&X&&&&$:;X1*$+$;==%=@#&.<<.X&&X.&#$;:=::;;;=%Oo,,,,,,-o%@>X& ;.<Oooo---o%:;;@+ ++++++++++++++",
"XXXXXX&X&&X&>:%>21X&>& ::=:$>&...X&&*&X&>+@;::::::=%%%%Oo,,,--= X<X ;1X%%ooO-ooO=::@++++++++++++++++",
"XX&X&X&X&&X&@=+11*&<&<X@::; *X....X&*>># +@@;:==%%%%%OOOO-,,-o:#.<X#@1@oooooo=:@:=:$ $+ ++++++      ",
"XXXXXX&X&*&*=;X1> .1<<.$:;$ *X.<<..X&>   +$$$;:=%OOOOoo--,,--O:#&.&#$&+-,---o=@<.+@@ $+ ++++++      ",
"&XX&XX&X&&X>=$&> ><111. ;@$ *X.<<..XX*>>## +@;::=%oOOooo----o%;#&&* @;.o--,--oo><& $++++++++++      ",
"XXXX&&X&&&X#=$XX<111<<. :@@$*....X....X&&*># $@;=%%OOoOOOOOO=;$#&&&#@;X=oo,,,O,o#># $++ ++++++++++++",
"XXXXX&XX.&&$@&>>># #<<X@%;@+>XXXXXXXXX.XXX&>> $@;::=%OOOooO=;$+#XX& +@$>,o-,%Ooo:  +++  ++ + + + + +",
"XXXX&X&X.XX#$#$@:%%$<&X@%=:$#*X&&&&&&XXX.X&*>#+@;::=%%OOOO%=@$ *XXX>$@@*-Oo%;%,O@+$+++++++++++++++++",
"XXXXX&&&X&X>;:::%%@&<>.+%O%;+>&*****&&&&XX&**# $;;:=%%%O%%%:@ *..X&* $@>;-o%@>%@ $++++$+ + + + + + +",
"XXXX&XX&X&&#=%%%=+...*<*=O%=$#>>****&&&**&&&*#+$;::==%%%%%%:@*.<<.X&>#;##-oO$1XX#$ +++++++++++++++++",
"XXXXX&X&XX.>%OO%;#<<..<&%O%=@ #>****&&>>>*&*# $@::==%%%%O%%%;&<<<<.X> $$#;o%;#<X +++++  ++++++++++++",
"XXXXXXXXXXX*:oO=$*111X<&:%O=:@*X**&&*>*>#*&#++@;::==%%OO%oO%;>>X<<<X&#+;  =%=; *#+++  ++            ",
"X.XXXXXXX&X>$=-=*<11<<1&=%O=;@#&*>&&>#>&*> $$@;;:===%%OOoo%:$ ;@>>#*&* @+&$==:$&X   +     + + + + + ",
"XXXXXXXXXXX>>#==+X<<<.. =%%=:;$>&**&*>*&> $@@;;@;::=%OOOo%%$&>&#@$#>>* @;*<$@$><1#+  +              ",
".X.XXXXXXXXX  #>>@;#1<.@===:::@ >*  >>** @;;@$$@;;;:%oOOO%%@.<11<<.<1&#$: 2#$#.22*@  +    + + + + + ",
"X.XXXX&XXXXX#++*. :;1<X:%=;@::@@  @$ +$# ;=;+  @;@:%OoO%==%:*1.@@>.X.* @:+2> >X23.$+#++             ",
".XXXXXXXXXXX*&>#&&*>1<&:%%:@;:=@ @@  @;@;==@>  $@;OoooO%==;=$*;Oo%=@>*$:;*1+>.1231#+ ++   + + + + + ",
"X.X.XXXXXXXXX&X.X&*X<<>:%=:$@:=:;@@;:=:;%o:#>>*+=%---oO%%%:==:@ @;;:;+;;$.1%+<2232#  $ +            ",
"XX.XX.XXXXX&X&&XX<&#&X#:%%:@$$;::;;:==:=OO@>*& =o-oooOO%%%%%O%=:=; $$$;:;;+o:X2332+  +#+        + + ",
"X.XX.XX.XXXXXX&#*<XX> $:%=::@#;::==:==%Oo%@#&>=------oO%Ooo---oOoO%%:#>$ :Oo% 2331$#+ #+            ",
".XX.X.XXXXXXXXX##&&.#$@@;=;;; ;:::%%=%OooO: X@-,o-,---oOoo-----oooo-%#>@*@,O%$233* #+  +        + + ",
"X.XX.XXXXXX&&X.>#XX.*$:=%=;@@+@:::%O%%OOoO: &:,,o,,--,,-o-----,-O%%o:& :+@OO:#231+##                ",
".XX.XXX.XXXXXXX*>.11<+==:=:@@@;:=:=%OOOo-O: #%---,-O%OO%%%OOOooOO%O,%##;@+=O;.22&+#+#  #        + + ",
"X.XXX.XXXXXXXXX&#.11X:O:@==;$$;@:==%%Oo--O:@@%-,-,O=:;$ +;;:=====%O-O; @;;;O;12<+  +                ",
"..X.XX.X.XXXXXX*#.<1X:=@@::;@$;$:==%%o---o%:;=-,-,,o%:@;@@$@;;::=%OO%@@=:;;%;11*$                   ",
".X.X.XX.XXXXXXX&>.<<&;:@$@@;;::::;:OOoo-,-O=;:o,,,,,-%:==;==;=====%%$# +@=%=;11                     ",
"....XX..XX.XXXX&>.<< =;+$@@;=%===;:%%o--,-O%:;%-,,--o%@#&<@$#:::%=%%; .<>:;;$1.$#                   ",
"...X.X.X.XXX.XX&*.<X@:$ ;;@;:===%===%o-,,-O=::%-,-oO%%:@.1><1#X.:=%::$*<<@=@ .>$# # # #             ",
".X......X..X.XXX*..X@:@$;$++@:=%%%O%%o-,,-O%:=%o,--%===%:$;>.>11> $1X=: <#%:+>;  # # #              ",
"....X.....XX.X.X&..X@%:@$## @:%OO%OOO--,,,o%==%-,-oO=;;==:%:;$**&.<321:O;:O%$@:#+# # # #            ",
"......X.X.X.X.X&&X<X;=;@@$# @:=%%OOOO--,,,oO==O,,--o=;;;;:==;;;$ *X323O,,,,%+:@# ###                ",
"..........XXXXX&&.<X;:@@@;$+@:=%%OOOOOo-,,-o%%O,,-,o%%=@@@;:;:;::+$*.1 :o,o=::$##### #  #       #  #",
".........X.X.X&&X.<*::@;@$+$;;;%%OOOOo--,,-O==O-----OO%;;@  $;;==@ @&11<%,O:%:  >###   #            ",
".....X....X.XXX&X.<X:=:=:;@;;;:%OOOoooo----o%%o,,,---oO%=;@@$$@=:=# <211$Oo:O;# #### #  # #    # #  ",
".......X.X.X.X&&.<<&:%=::+ +@:%OOO%Ooooo---o%%o---,,-oooO%%%:;;:;: *1322+o=:O;  ####  # #           ",
"..........XX..&&..<.@%=:=;;:::=%%%%Oo-----oO=%O--,,-oo-oooOO%Ooo%::$><21*O::O@ ##### #  ## #  #  #  ",
".......X.....X&X...<#%O=%%%=:%%%%%%O---,-,-%=Oo-,-,-ooo-oooOOo--oo%:;;;$@%:;% ### ###  #  #  #  # # ",
"..<.......X..X&X...<&:O%%%%===%%OOOooo-,,--O%Oo-,-,--o--oooOOoo-,,o: #@;:%$=%  ###### # # # # # # # ",
".............X&X.<.<. %o%O%%=:%%%OOOOo,,-,-OO%O---,,----oooOOooooOO:# @;:=+=:# ># ### # # # # # # # ",
"...<...X....XX&X.<<<.X@%OO%OO=%%%%OOOo,,,,-O%=%o--,,----ooooooooO=%:>#@;:=$:@# ## ### # # # # # # # ",
".<........X..X&X.<<<<<*@=%OOOOOOOOOo--,,-,-O=:%oo-,,--ooooooooo-oO%@&&@:=%+@$  ###### # # # # # # # ",
"....<...X...XX&X.<<<<..&$:OOo-oOOOOOo-,,,,-O%=OOOo,---oo-----ooooO=$>&@:==>># >  #### # # # # # # # ",
"..........X..X&X<<<<<<<.* ;%OoOo-oOoOo-,,,-o%%OoOO-,,-o-,-------oO=;$+:=:@#X##># ######## # #       ",
".<.........X.X&X.<<<.<<.XX*$:%o--ooooo-,,--o%%%OOOo----,------oOOO%:;::=%;>.  ########## # # #  #  #",
"....<.......XXX..<<<..<<<..X>@%o-----oo---oo%==%%oo--o--,-----oOOOO=:%=%%@><> # ######### # #       ",
"..<.......X.XXX..<<<<<<.<X...* ;%O-,,-o---oo%==%%O---o--,,,,---oOoo%=%OO=@><>#># ############# # # #",
"............X&....<1<<...<.XX&*>+;=o,--,,,--%=%=%%OOOo-,--,,---ooo-O%O=%%@X.# #  ###################",
"...<......X.X&....<<<<<....XX&&*>>+:Oo------o%%==%O%%Oo-o-,,----oooOOO%=:+X<> # ################ ## ",
"<......<.X..&&...<..1<<..X&&XXX>#>>$;%o------O%%=::=%%%OOo-------oO%%O%:$ *1* # ####################",
"....<.<<.X.X&XX.<<.<<<<..XX&**&**># +;=O----oO%%=:@==:=OOOOoo---ooO%==;@ #&1> >#####################",
".<.......<.&&XX..<<<<<<...&>>>>&&*># +@:Oo---oOO=:=%=:%OOOOOoOo--ooO=:@@ &.<*#>#####################",
"..........X>*...<<1<<<<.XX&>#>*&&*>>># +;%-,--oO%=%%=%O%Oooooooo-ooO%=;;$**X> ######################",
"..<..<...X*>&...<11<<.<.XX&>>>>**>### +# ;O-ooooOO%%%Oo%OoooooOo-ooO%=:;$#>>  ######################",
".......<<& >X..<<1<<<<...&&*>##>>## #    $:O,--oOOOOOOO%%Oooooo----O%%=@$ ### #>####################",
"...<..<<.>+>X.<<111<<<.XX****>##>##  ##+  $:oo-oo-ooOOo%Ooo-ooo----O%%=@@$>#########################",
".......X# #&X.<1<<1<<<.&*&**&&>##># #>>##  $:%o--,,oo--o--oOooOoo--OO=;$$#X#########################",
"<....<&## >&.<1<<<1<<.X&&*&&*>*>>###>*>### ++@=o,--------oOO--o-oooO%==;$ >#########################",
"..<<X*   #*&.<<<<11<<.X&&&&****>>##>***>>># $+@=Ooo--------o,,,,--oo%:=:@ >#########################",
"XXX* $+ #>&X.<<<<<<<<.X&XX*>*&*>#>>>>****># +@@;=O%Ooo---,,-oo-,--oOOO:$  ##########################",
"  $$+   #*&..<<<<<<<..XXX.&>**>>>>>***&***# #@:=%%%%%OOOo----,,--ooOO%@>>###########################",
"+++++$+ #*X...<<1<<...XXX.X*>>*&*>>&&&**&*#+$@:%%%O%%%=:;$$;OoOOOOO%=+ ###>#########################"
};
